<svg width="2870" height="795" id="tree-svg" style="overflow: visible;" xmlns="http://www.w3.org/2000/svg" viewBox="-1560 -65 4380 810"><style xmlns="http://www.w3.org/1999/xhtml">
      .node rect { 
        fill: #fff; 
        stroke-width: 1px; 
      }
      .node text { 
        font: 12px sans-serif; 
      }
      .node-attributes { 
        font: 10px sans-serif; 
        fill: #666; 
      }
      .link { 
        fill: none; 
        stroke: #999; 
        stroke-width: 1px; 
      }
      line {
        stroke: #444;
        stroke-width: 2px;
      }
    </style><g transform="translate(75,112) scale(0.8)"><path class="link" d="M0,0C0,60,-1125,60,-1125,120"/><path class="link" d="M0,0C0,60,1125,60,1125,120"/><path class="link" d="M-1125,120C-1125,180,-1395,180,-1395,240"/><path class="link" d="M-1125,120C-1125,180,-1125,180,-1125,240"/><path class="link" d="M-1125,120C-1125,180,-855,180,-855,240"/><path class="link" d="M1125,120C1125,180,-405,180,-405,240"/><path class="link" d="M1125,120C1125,180,-135,180,-135,240"/><path class="link" d="M1125,120C1125,180,990,180,990,240"/><path class="link" d="M1125,120C1125,180,2115,180,2115,240"/><path class="link" d="M1125,120C1125,180,2385,180,2385,240"/><path class="link" d="M1125,120C1125,180,2655,180,2655,240"/><path class="link" d="M-1395,240C-1395,300,-1395,300,-1395,360"/><path class="link" d="M-135,240C-135,300,-405,300,-405,360"/><path class="link" d="M-135,240C-135,300,-135,300,-135,360"/><path class="link" d="M-135,240C-135,300,135,300,135,360"/><path class="link" d="M990,240C990,300,585,300,585,360"/><path class="link" d="M990,240C990,300,855,300,855,360"/><path class="link" d="M990,240C990,300,1125,300,1125,360"/><path class="link" d="M990,240C990,300,1395,300,1395,360"/><path class="link" d="M2115,240C2115,300,1845,300,1845,360"/><path class="link" d="M2115,240C2115,300,2115,300,2115,360"/><path class="link" d="M2115,240C2115,300,2385,300,2385,360"/><path class="link" d="M-135,360C-135,420,-270,420,-270,480"/><path class="link" d="M-135,360C-135,420,0,420,0,480"/><path class="link" d="M585,360C585,420,585,420,585,480"/><path class="link" d="M1125,360C1125,420,1125,420,1125,480"/><path class="link" d="M2115,360C2115,420,1980,420,1980,480"/><path class="link" d="M2115,360C2115,420,2250,420,2250,480"/><path class="link" d="M-270,480C-270,540,-405,540,-405,600"/><path class="link" d="M-270,480C-270,540,-135,540,-135,600"/><path class="link" d="M1125,480C1125,540,990,540,990,600"/><path class="link" d="M1125,480C1125,540,1260,540,1260,600"/><path class="link" d="M2250,480C2250,540,2250,540,2250,600"/><g class="node" transform="translate(0,0)"><rect x="-115" y="-15" width="230" height="50" stroke="#4A90E2" style="stroke: rgb(74, 144, 226);"/><text dy="5" text-anchor="middle">Selector</text><line x1="-105" y1="10" x2="105" y2="10" stroke="#444" stroke-width="2"/><text class="node-attributes" dy="25" x="-105" text-anchor="start">name: Robot Main Controller</text><line x1="-105" y1="30" x2="105" y2="30" stroke="#ddd" stroke-width="1"/></g><g class="node" transform="translate(-1125,120)"><rect x="-115" y="-15" width="230" height="50" stroke="#4A90E2" style="stroke: rgb(74, 144, 226);"/><text dy="5" text-anchor="middle">Sequence</text><line x1="-105" y1="10" x2="105" y2="10" stroke="#444" stroke-width="2"/><text class="node-attributes" dy="25" x="-105" text-anchor="start">name: Battery Management</text><line x1="-105" y1="30" x2="105" y2="30" stroke="#ddd" stroke-width="1"/></g><g class="node" transform="translate(1125,120)"><rect x="-115" y="-15" width="230" height="50" stroke="#4A90E2" style="stroke: rgb(74, 144, 226);"/><text dy="5" text-anchor="middle">Sequence</text><line x1="-105" y1="10" x2="105" y2="10" stroke="#444" stroke-width="2"/><text class="node-attributes" dy="25" x="-105" text-anchor="start">name: Patrol Task</text><line x1="-105" y1="30" x2="105" y2="30" stroke="#ddd" stroke-width="1"/></g><g class="node" transform="translate(-1395,240)"><rect x="-115" y="-15" width="230" height="50" stroke="#F5A623" style="stroke: rgb(245, 166, 35);"/><text dy="5" text-anchor="middle">Inverter</text><line x1="-105" y1="10" x2="105" y2="10" stroke="#444" stroke-width="2"/><text class="node-attributes" dy="25" x="-105" text-anchor="start">name: Low Battery Detection</text><line x1="-105" y1="30" x2="105" y2="30" stroke="#ddd" stroke-width="1"/></g><g class="node" transform="translate(-1125,240)"><rect x="-115" y="-15" width="230" height="90" stroke="#D0021B" style="stroke: rgb(208, 2, 27);"/><text dy="5" text-anchor="middle">Echo</text><line x1="-105" y1="10" x2="105" y2="10" stroke="#444" stroke-width="2"/><text class="node-attributes" dy="25" x="-105" text-anchor="start">name: Low Battery Warning</text><line x1="-105" y1="30" x2="105" y2="30" stroke="#ddd" stroke-width="1"/><text class="node-attributes" dy="45" x="-105" text-anchor="start">message: Battery level low!</text><line x1="-105" y1="50" x2="105" y2="50" stroke="#ddd" stroke-width="1"/><text class="node-attributes" dy="65" x="-105" text-anchor="start">Charging needed</text><line x1="-105" y1="70" x2="105" y2="70" stroke="#ddd" stroke-width="1"/></g><g class="node" transform="translate(-855,240)"><rect x="-115" y="-15" width="230" height="70" stroke="#90EE90" style="stroke: rgb(144, 238, 144);"/><text dy="5" text-anchor="middle">ChargeBattery</text><line x1="-105" y1="10" x2="105" y2="10" stroke="#444" stroke-width="2"/><text class="node-attributes" dy="25" x="-105" text-anchor="start">name: Charge Battery</text><line x1="-105" y1="30" x2="105" y2="30" stroke="#ddd" stroke-width="1"/><text class="node-attributes" dy="45" x="-105" text-anchor="start">charge_rate: 20</text><line x1="-105" y1="50" x2="105" y2="50" stroke="#ddd" stroke-width="1"/></g><g class="node" transform="translate(-405,240)"><rect x="-115" y="-15" width="230" height="70" stroke="#D0021B" style="stroke: rgb(208, 2, 27);"/><text dy="5" text-anchor="middle">Echo</text><line x1="-105" y1="10" x2="105" y2="10" stroke="#444" stroke-width="2"/><text class="node-attributes" dy="25" x="-105" text-anchor="start">name: Start Task</text><line x1="-105" y1="30" x2="105" y2="30" stroke="#ddd" stroke-width="1"/><text class="node-attributes" dy="45" x="-105" text-anchor="start">message: Starting patrol task</text><line x1="-105" y1="50" x2="105" y2="50" stroke="#ddd" stroke-width="1"/></g><g class="node" transform="translate(-135,240)"><rect x="-115" y="-15" width="230" height="50" stroke="#4A90E2" style="stroke: rgb(74, 144, 226);"/><text dy="5" text-anchor="middle">Sequence</text><line x1="-105" y1="10" x2="105" y2="10" stroke="#444" stroke-width="2"/><text class="node-attributes" dy="25" x="-105" text-anchor="start">name: Move to Position A</text><line x1="-105" y1="30" x2="105" y2="30" stroke="#ddd" stroke-width="1"/></g><g class="node" transform="translate(990,240)"><rect x="-115" y="-15" width="230" height="50" stroke="#4A90E2" style="stroke: rgb(74, 144, 226);"/><text dy="5" text-anchor="middle">Sequence</text><line x1="-105" y1="10" x2="105" y2="10" stroke="#444" stroke-width="2"/><text class="node-attributes" dy="25" x="-105" text-anchor="start">name: Move to Position B</text><line x1="-105" y1="30" x2="105" y2="30" stroke="#ddd" stroke-width="1"/></g><g class="node" transform="translate(2115,240)"><rect x="-115" y="-15" width="230" height="50" stroke="#4A90E2" style="stroke: rgb(74, 144, 226);"/><text dy="5" text-anchor="middle">WhileDoElse</text><line x1="-105" y1="10" x2="105" y2="10" stroke="#444" stroke-width="2"/><text class="node-attributes" dy="25" x="-105" text-anchor="start">name: Conditional Move to C</text><line x1="-105" y1="30" x2="105" y2="30" stroke="#ddd" stroke-width="1"/></g><g class="node" transform="translate(2385,240)"><rect x="-115" y="-15" width="230" height="110" stroke="#D0021B" style="stroke: rgb(208, 2, 27);"/><text dy="5" text-anchor="middle">Echo</text><line x1="-105" y1="10" x2="105" y2="10" stroke="#444" stroke-width="2"/><text class="node-attributes" dy="25" x="-105" text-anchor="start">name: Complete Patrol</text><line x1="-105" y1="30" x2="105" y2="30" stroke="#ddd" stroke-width="1"/><text class="node-attributes" dy="45" x="-105" text-anchor="start">message: Patrol task</text><line x1="-105" y1="50" x2="105" y2="50" stroke="#ddd" stroke-width="1"/><text class="node-attributes" dy="65" x="-105" text-anchor="start">completed, returning to</text><line x1="-105" y1="70" x2="105" y2="70" stroke="#ddd" stroke-width="1"/><text class="node-attributes" dy="85" x="-105" text-anchor="start">charging station</text><line x1="-105" y1="90" x2="105" y2="90" stroke="#ddd" stroke-width="1"/></g><g class="node" transform="translate(2655,240)"><rect x="-115" y="-15" width="230" height="110" stroke="#90EE90" style="stroke: rgb(144, 238, 144);"/><text dy="5" text-anchor="middle">MoveToPosition</text><line x1="-105" y1="10" x2="105" y2="10" stroke="#444" stroke-width="2"/><text class="node-attributes" dy="25" x="-105" text-anchor="start">name: Return to Charging</text><line x1="-105" y1="30" x2="105" y2="30" stroke="#ddd" stroke-width="1"/><text class="node-attributes" dy="45" x="-105" text-anchor="start">Station</text><line x1="-105" y1="50" x2="105" y2="50" stroke="#ddd" stroke-width="1"/><text class="node-attributes" dy="65" x="-105" text-anchor="start">position: Charging Station</text><line x1="-105" y1="70" x2="105" y2="70" stroke="#ddd" stroke-width="1"/><text class="node-attributes" dy="85" x="-105" text-anchor="start">move_duration: 4</text><line x1="-105" y1="90" x2="105" y2="90" stroke="#ddd" stroke-width="1"/></g><g class="node" transform="translate(-1395,360)"><rect x="-115" y="-15" width="230" height="70" stroke="#90EE90" style="stroke: rgb(144, 238, 144);"/><text dy="5" text-anchor="middle">CheckBattery</text><line x1="-105" y1="10" x2="105" y2="10" stroke="#444" stroke-width="2"/><text class="node-attributes" dy="25" x="-105" text-anchor="start">name: Check Battery</text><line x1="-105" y1="30" x2="105" y2="30" stroke="#ddd" stroke-width="1"/><text class="node-attributes" dy="45" x="-105" text-anchor="start">threshold: 30</text><line x1="-105" y1="50" x2="105" y2="50" stroke="#ddd" stroke-width="1"/></g><g class="node" transform="translate(-405,360)"><rect x="-115" y="-15" width="230" height="90" stroke="#90EE90" style="stroke: rgb(144, 238, 144);"/><text dy="5" text-anchor="middle">MoveToPosition</text><line x1="-105" y1="10" x2="105" y2="10" stroke="#444" stroke-width="2"/><text class="node-attributes" dy="25" x="-105" text-anchor="start">name: Move to A</text><line x1="-105" y1="30" x2="105" y2="30" stroke="#ddd" stroke-width="1"/><text class="node-attributes" dy="45" x="-105" text-anchor="start">position: A</text><line x1="-105" y1="50" x2="105" y2="50" stroke="#ddd" stroke-width="1"/><text class="node-attributes" dy="65" x="-105" text-anchor="start">move_duration: 2</text><line x1="-105" y1="70" x2="105" y2="70" stroke="#ddd" stroke-width="1"/></g><g class="node" transform="translate(-135,360)"><rect x="-115" y="-15" width="230" height="50" stroke="#4A90E2" style="stroke: rgb(74, 144, 226);"/><text dy="5" text-anchor="middle">Selector</text><line x1="-105" y1="10" x2="105" y2="10" stroke="#444" stroke-width="2"/><text class="node-attributes" dy="25" x="-105" text-anchor="start">name: Obstacle Handling A</text><line x1="-105" y1="30" x2="105" y2="30" stroke="#ddd" stroke-width="1"/></g><g class="node" transform="translate(135,360)"><rect x="-115" y="-15" width="230" height="90" stroke="#90EE90" style="stroke: rgb(144, 238, 144);"/><text dy="5" text-anchor="middle">PerformTask</text><line x1="-105" y1="10" x2="105" y2="10" stroke="#444" stroke-width="2"/><text class="node-attributes" dy="25" x="-105" text-anchor="start">name: Position A Task</text><line x1="-105" y1="30" x2="105" y2="30" stroke="#ddd" stroke-width="1"/><text class="node-attributes" dy="45" x="-105" text-anchor="start">task_name: Check Device Status</text><line x1="-105" y1="50" x2="105" y2="50" stroke="#ddd" stroke-width="1"/><text class="node-attributes" dy="65" x="-105" text-anchor="start">task_duration: 2</text><line x1="-105" y1="70" x2="105" y2="70" stroke="#ddd" stroke-width="1"/></g><g class="node" transform="translate(585,360)"><rect x="-115" y="-15" width="230" height="70" stroke="#F5A623" style="stroke: rgb(245, 166, 35);"/><text dy="5" text-anchor="middle">Delay</text><line x1="-105" y1="10" x2="105" y2="10" stroke="#444" stroke-width="2"/><text class="node-attributes" dy="25" x="-105" text-anchor="start">name: Short Wait</text><line x1="-105" y1="30" x2="105" y2="30" stroke="#ddd" stroke-width="1"/><text class="node-attributes" dy="45" x="-105" text-anchor="start">sec: 1</text><line x1="-105" y1="50" x2="105" y2="50" stroke="#ddd" stroke-width="1"/></g><g class="node" transform="translate(855,360)"><rect x="-115" y="-15" width="230" height="90" stroke="#90EE90" style="stroke: rgb(144, 238, 144);"/><text dy="5" text-anchor="middle">MoveToPosition</text><line x1="-105" y1="10" x2="105" y2="10" stroke="#444" stroke-width="2"/><text class="node-attributes" dy="25" x="-105" text-anchor="start">name: Move to B</text><line x1="-105" y1="30" x2="105" y2="30" stroke="#ddd" stroke-width="1"/><text class="node-attributes" dy="45" x="-105" text-anchor="start">position: B</text><line x1="-105" y1="50" x2="105" y2="50" stroke="#ddd" stroke-width="1"/><text class="node-attributes" dy="65" x="-105" text-anchor="start">move_duration: 3</text><line x1="-105" y1="70" x2="105" y2="70" stroke="#ddd" stroke-width="1"/></g><g class="node" transform="translate(1125,360)"><rect x="-115" y="-15" width="230" height="90" stroke="#F5A623" style="stroke: rgb(245, 166, 35);"/><text dy="5" text-anchor="middle">Timeout</text><line x1="-105" y1="10" x2="105" y2="10" stroke="#444" stroke-width="2"/><text class="node-attributes" dy="25" x="-105" text-anchor="start">name: Limited Time Obstacle</text><line x1="-105" y1="30" x2="105" y2="30" stroke="#ddd" stroke-width="1"/><text class="node-attributes" dy="45" x="-105" text-anchor="start">Handling</text><line x1="-105" y1="50" x2="105" y2="50" stroke="#ddd" stroke-width="1"/><text class="node-attributes" dy="65" x="-105" text-anchor="start">sec: 2</text><line x1="-105" y1="70" x2="105" y2="70" stroke="#ddd" stroke-width="1"/></g><g class="node" transform="translate(1395,360)"><rect x="-115" y="-15" width="230" height="90" stroke="#90EE90" style="stroke: rgb(144, 238, 144);"/><text dy="5" text-anchor="middle">PerformTask</text><line x1="-105" y1="10" x2="105" y2="10" stroke="#444" stroke-width="2"/><text class="node-attributes" dy="25" x="-105" text-anchor="start">name: Position B Task</text><line x1="-105" y1="30" x2="105" y2="30" stroke="#ddd" stroke-width="1"/><text class="node-attributes" dy="45" x="-105" text-anchor="start">task_name: Data Collection</text><line x1="-105" y1="50" x2="105" y2="50" stroke="#ddd" stroke-width="1"/><text class="node-attributes" dy="65" x="-105" text-anchor="start">task_duration: 2.5</text><line x1="-105" y1="70" x2="105" y2="70" stroke="#ddd" stroke-width="1"/></g><g class="node" transform="translate(1845,360)"><rect x="-115" y="-15" width="230" height="70" stroke="#90EE90" style="stroke: rgb(144, 238, 144);"/><text dy="5" text-anchor="middle">CheckBattery</text><line x1="-105" y1="10" x2="105" y2="10" stroke="#444" stroke-width="2"/><text class="node-attributes" dy="25" x="-105" text-anchor="start">name: Check Sufficient Battery</text><line x1="-105" y1="30" x2="105" y2="30" stroke="#ddd" stroke-width="1"/><text class="node-attributes" dy="45" x="-105" text-anchor="start">threshold: 50</text><line x1="-105" y1="50" x2="105" y2="50" stroke="#ddd" stroke-width="1"/></g><g class="node" transform="translate(2115,360)"><rect x="-115" y="-15" width="230" height="50" stroke="#4A90E2" style="stroke: rgb(74, 144, 226);"/><text dy="5" text-anchor="middle">Sequence</text><line x1="-105" y1="10" x2="105" y2="10" stroke="#444" stroke-width="2"/><text class="node-attributes" dy="25" x="-105" text-anchor="start">name: Perform Position C Task</text><line x1="-105" y1="30" x2="105" y2="30" stroke="#ddd" stroke-width="1"/></g><g class="node" transform="translate(2385,360)"><rect x="-115" y="-15" width="230" height="90" stroke="#D0021B" style="stroke: rgb(208, 2, 27);"/><text dy="5" text-anchor="middle">Echo</text><line x1="-105" y1="10" x2="105" y2="10" stroke="#444" stroke-width="2"/><text class="node-attributes" dy="25" x="-105" text-anchor="start">name: Skip Position C</text><line x1="-105" y1="30" x2="105" y2="30" stroke="#ddd" stroke-width="1"/><text class="node-attributes" dy="45" x="-105" text-anchor="start">message: Insufficient power,</text><line x1="-105" y1="50" x2="105" y2="50" stroke="#ddd" stroke-width="1"/><text class="node-attributes" dy="65" x="-105" text-anchor="start">skipping position C task</text><line x1="-105" y1="70" x2="105" y2="70" stroke="#ddd" stroke-width="1"/></g><g class="node" transform="translate(-270,480)"><rect x="-115" y="-15" width="230" height="50" stroke="#4A90E2" style="stroke: rgb(74, 144, 226);"/><text dy="5" text-anchor="middle">Sequence</text><line x1="-105" y1="10" x2="105" y2="10" stroke="#444" stroke-width="2"/><text class="node-attributes" dy="25" x="-105" text-anchor="start">name: Obstacle Present</text><line x1="-105" y1="30" x2="105" y2="30" stroke="#ddd" stroke-width="1"/></g><g class="node" transform="translate(0,480)"><rect x="-115" y="-15" width="230" height="70" stroke="#D0021B" style="stroke: rgb(208, 2, 27);"/><text dy="5" text-anchor="middle">Echo</text><line x1="-105" y1="10" x2="105" y2="10" stroke="#444" stroke-width="2"/><text class="node-attributes" dy="25" x="-105" text-anchor="start">name: No Obstacle</text><line x1="-105" y1="30" x2="105" y2="30" stroke="#ddd" stroke-width="1"/><text class="node-attributes" dy="45" x="-105" text-anchor="start">message: Path clear</text><line x1="-105" y1="50" x2="105" y2="50" stroke="#ddd" stroke-width="1"/></g><g class="node" transform="translate(585,480)"><rect x="-115" y="-15" width="230" height="90" stroke="#D0021B" style="stroke: rgb(208, 2, 27);"/><text dy="5" text-anchor="middle">Echo</text><line x1="-105" y1="10" x2="105" y2="10" stroke="#444" stroke-width="2"/><text class="node-attributes" dy="25" x="-105" text-anchor="start">name: Prepare Movement</text><line x1="-105" y1="30" x2="105" y2="30" stroke="#ddd" stroke-width="1"/><text class="node-attributes" dy="45" x="-105" text-anchor="start">message: Preparing to move to</text><line x1="-105" y1="50" x2="105" y2="50" stroke="#ddd" stroke-width="1"/><text class="node-attributes" dy="65" x="-105" text-anchor="start">next position</text><line x1="-105" y1="70" x2="105" y2="70" stroke="#ddd" stroke-width="1"/></g><g class="node" transform="translate(1125,480)"><rect x="-115" y="-15" width="230" height="50" stroke="#4A90E2" style="stroke: rgb(74, 144, 226);"/><text dy="5" text-anchor="middle">Sequence</text><line x1="-105" y1="10" x2="105" y2="10" stroke="#444" stroke-width="2"/><text class="node-attributes" dy="25" x="-105" text-anchor="start">name: Obstacle Present</text><line x1="-105" y1="30" x2="105" y2="30" stroke="#ddd" stroke-width="1"/></g><g class="node" transform="translate(1980,480)"><rect x="-115" y="-15" width="230" height="90" stroke="#90EE90" style="stroke: rgb(144, 238, 144);"/><text dy="5" text-anchor="middle">MoveToPosition</text><line x1="-105" y1="10" x2="105" y2="10" stroke="#444" stroke-width="2"/><text class="node-attributes" dy="25" x="-105" text-anchor="start">name: Move to C</text><line x1="-105" y1="30" x2="105" y2="30" stroke="#ddd" stroke-width="1"/><text class="node-attributes" dy="45" x="-105" text-anchor="start">position: C</text><line x1="-105" y1="50" x2="105" y2="50" stroke="#ddd" stroke-width="1"/><text class="node-attributes" dy="65" x="-105" text-anchor="start">move_duration: 2.5</text><line x1="-105" y1="70" x2="105" y2="70" stroke="#ddd" stroke-width="1"/></g><g class="node" transform="translate(2250,480)"><rect x="-115" y="-15" width="230" height="50" stroke="#F5A623" style="stroke: rgb(245, 166, 35);"/><text dy="5" text-anchor="middle">ForceSuccess</text><line x1="-105" y1="10" x2="105" y2="10" stroke="#444" stroke-width="2"/><text class="node-attributes" dy="25" x="-105" text-anchor="start">name: Ensure Completion</text><line x1="-105" y1="30" x2="105" y2="30" stroke="#ddd" stroke-width="1"/></g><g class="node" transform="translate(-405,600)"><rect x="-115" y="-15" width="230" height="70" stroke="#90EE90" style="stroke: rgb(144, 238, 144);"/><text dy="5" text-anchor="middle">DetectObstacle</text><line x1="-105" y1="10" x2="105" y2="10" stroke="#444" stroke-width="2"/><text class="node-attributes" dy="25" x="-105" text-anchor="start">name: Detect Obstacle</text><line x1="-105" y1="30" x2="105" y2="30" stroke="#ddd" stroke-width="1"/><text class="node-attributes" dy="45" x="-105" text-anchor="start">obstacle_probability: 0.3</text><line x1="-105" y1="50" x2="105" y2="50" stroke="#ddd" stroke-width="1"/></g><g class="node" transform="translate(-135,600)"><rect x="-115" y="-15" width="230" height="70" stroke="#90EE90" style="stroke: rgb(144, 238, 144);"/><text dy="5" text-anchor="middle">AvoidObstacle</text><line x1="-105" y1="10" x2="105" y2="10" stroke="#444" stroke-width="2"/><text class="node-attributes" dy="25" x="-105" text-anchor="start">name: Avoid Obstacle</text><line x1="-105" y1="30" x2="105" y2="30" stroke="#ddd" stroke-width="1"/><text class="node-attributes" dy="45" x="-105" text-anchor="start">avoid_duration: 1.5</text><line x1="-105" y1="50" x2="105" y2="50" stroke="#ddd" stroke-width="1"/></g><g class="node" transform="translate(990,600)"><rect x="-115" y="-15" width="230" height="70" stroke="#90EE90" style="stroke: rgb(144, 238, 144);"/><text dy="5" text-anchor="middle">DetectObstacle</text><line x1="-105" y1="10" x2="105" y2="10" stroke="#444" stroke-width="2"/><text class="node-attributes" dy="25" x="-105" text-anchor="start">name: Detect Obstacle</text><line x1="-105" y1="30" x2="105" y2="30" stroke="#ddd" stroke-width="1"/><text class="node-attributes" dy="45" x="-105" text-anchor="start">obstacle_probability: 0.4</text><line x1="-105" y1="50" x2="105" y2="50" stroke="#ddd" stroke-width="1"/></g><g class="node" transform="translate(1260,600)"><rect x="-115" y="-15" width="230" height="70" stroke="#90EE90" style="stroke: rgb(144, 238, 144);"/><text dy="5" text-anchor="middle">AvoidObstacle</text><line x1="-105" y1="10" x2="105" y2="10" stroke="#444" stroke-width="2"/><text class="node-attributes" dy="25" x="-105" text-anchor="start">name: Avoid Obstacle</text><line x1="-105" y1="30" x2="105" y2="30" stroke="#ddd" stroke-width="1"/><text class="node-attributes" dy="45" x="-105" text-anchor="start">avoid_duration: 1.8</text><line x1="-105" y1="50" x2="105" y2="50" stroke="#ddd" stroke-width="1"/></g><g class="node" transform="translate(2250,600)"><rect x="-115" y="-15" width="230" height="110" stroke="#90EE90" style="stroke: rgb(144, 238, 144);"/><text dy="5" text-anchor="middle">PerformTask</text><line x1="-105" y1="10" x2="105" y2="10" stroke="#444" stroke-width="2"/><text class="node-attributes" dy="25" x="-105" text-anchor="start">name: Position C Task</text><line x1="-105" y1="30" x2="105" y2="30" stroke="#ddd" stroke-width="1"/><text class="node-attributes" dy="45" x="-105" text-anchor="start">task_name: Environment</text><line x1="-105" y1="50" x2="105" y2="50" stroke="#ddd" stroke-width="1"/><text class="node-attributes" dy="65" x="-105" text-anchor="start">Monitoring</text><line x1="-105" y1="70" x2="105" y2="70" stroke="#ddd" stroke-width="1"/><text class="node-attributes" dy="85" x="-105" text-anchor="start">task_duration: 2</text><line x1="-105" y1="90" x2="105" y2="90" stroke="#ddd" stroke-width="1"/></g></g></svg>